<?xml version="1.0" standalone="no"?>
<!DOCTYPE svg PUBLIC "-//W3C//DTD SVG 20010904//EN"
 "http://www.w3.org/TR/2001/REC-SVG-20010904/DTD/svg10.dtd">
<svg version="1.0" xmlns="http://www.w3.org/2000/svg"
 width="1280.000000pt" height="854.000000pt" viewBox="0 0 1280.000000 854.000000"
 preserveAspectRatio="xMidYMid meet">

<g transform="translate(0.000000,854.000000) scale(0.100000,-0.100000)"
fill="#000000" stroke="none">
<path d="M0 4275 l0 -4265 6400 0 6400 0 0 4265 0 4265 -6400 0 -6400 0 0
-4265z m6692 1668 l285 -878 926 -5 925 -5 -747 -542 -748 -543 284 -871 c156
-480 282 -876 281 -880 -2 -5 -338 234 -747 531 -410 297 -747 540 -751 540
-3 0 -341 -243 -750 -540 -410 -297 -746 -536 -748 -531 -1 4 125 400 281 880
l284 872 -271 197 c-150 108 -486 352 -748 542 l-476 345 925 5 926 5 285 878
c157 482 289 877 292 877 3 0 135 -395 292 -877z"/>
</g>
</svg>
