<?xml version="1.0" encoding="UTF-8"?>
<svg id="Layer_2" data-name="Layer 2" xmlns="http://www.w3.org/2000/svg" viewBox="0 0 234.37 31.87">
  <defs>
    <style>
      .cls-1 {
        fill: #202b39;
      }

      .cls-1, .cls-2 {
        stroke-width: 0px;
      }

      .cls-2 {
        fill: #259a5f;
      }
    </style>
  </defs>
  <g id="OBJECTS">
    <g>
      <path class="cls-2" d="m73.58,20.02c0-6.91,5.75-12.3,12.56-11.86,2.99.19,5.55,1.38,7.68,3.49.51.5,1,1.02,1.52,1.51.25.23.23.38-.01.61-1.05,1.02-2.08,2.06-3.11,3.11-.23.23-.36.25-.61,0-.79-.76-1.5-1.61-2.4-2.26-2.2-1.59-5.16-1.66-7.44-.16-2.28,1.5-3.4,4.25-2.82,6.88.6,2.68,2.81,4.77,5.47,5.11,2.16.27,4.06-.34,5.62-1.89,4.36-4.34,8.66-8.74,13.08-13.02,3.38-3.27,7.47-4.25,11.94-2.79,4.57,1.5,7.32,4.77,8.03,9.55,1.13,7.56-5.13,14.1-12.76,13.42-2.84-.26-5.29-1.4-7.31-3.43-1.43-1.44-2.89-2.86-4.31-4.32-.28-.28-.41-.21-.65.03-1.62,1.62-3.18,3.3-4.89,4.82-6.73,5.96-17.43,2.44-19.36-6.33-.18-.84-.29-1.7-.25-2.45Zm38.29,6.48c3.46,0,6.48-3.28,6.09-7.19-.27-2.66-1.71-4.54-4.2-5.49-2.47-.94-4.79-.49-6.74,1.29-1.58,1.44-3.04,3.01-4.57,4.51-.26.25-.26.39,0,.65,1.31,1.28,2.61,2.56,3.88,3.88,1.39,1.45,3.02,2.36,5.53,2.34Z"/>
      <path class="cls-1" d="m42.77,12.06v-.74c0-3.59,0-7.18-.01-10.77,0-.43.11-.56.55-.55,1.39.03,2.79.02,4.18,0,.37,0,.5.08.5.48-.01,10.26-.01,20.51,0,30.77,0,.37-.07.51-.48.5-1.43-.02-2.86-.02-4.29,0-.37,0-.46-.11-.46-.47.02-1.16,0-2.33,0-3.64-.62.68-1.09,1.31-1.68,1.82-2.89,2.53-6.19,2.91-9.66,1.58-3.89-1.49-5.97-4.54-6.66-8.55-.49-2.84-.24-5.62.97-8.27,2.31-5.08,8.31-7.45,13.23-5.23,1.34.61,2.44,1.53,3.4,2.64.09.11.19.21.39.43Zm-12.95,7.47c0,1.44.14,2.45.52,3.41.9,2.28,2.51,3.78,4.96,4.17,2.52.41,4.56-.53,6.1-2.55,1.9-2.5,1.93-6.58.09-9.12-2.32-3.21-6.75-3.68-9.57-.98-1.55,1.49-2.08,3.39-2.11,5.07Z"/>
      <path class="cls-1" d="m13.52,21.8c-2.57,0-5.13,0-7.7,0-.45,0-.61.05-.49.57,1.06,4.62,5.42,5.95,9.19,4.63,1.14-.4,2.11-1.1,2.98-1.92.25-.23.39-.29.66-.03.79.74,1.6,1.45,2.42,2.15.28.24.26.39.03.65-2.23,2.51-5.04,3.77-8.37,3.9-3.31.13-6.28-.77-8.72-3.07C1.2,26.47.13,23.68.01,20.52c-.12-3.23.74-6.16,2.86-8.65,3.88-4.58,11.41-5.03,15.55-.96,1.98,1.95,2.96,4.36,3.35,7.06.16,1.09.2,2.18.13,3.28-.03.47-.2.56-.63.56-2.58-.02-5.17,0-7.75,0Zm-2.58-3.48c1.76,0,3.52-.02,5.27.01.49,0,.55-.18.47-.57-.14-.66-.31-1.32-.58-1.94-1.14-2.69-3.96-4.05-6.67-3.17-2.51.81-3.65,2.76-4.18,5.19-.09.41.02.49.41.49,1.76-.02,3.52,0,5.27,0Z"/>
      <path class="cls-1" d="m185.56,21.8c-2.58,0-5.17,0-7.75,0-.42,0-.58.04-.46.54.79,3.52,3.78,5.57,7.41,5.1,1.86-.24,3.41-1.07,4.75-2.33.3-.28.46-.27.75,0,.76.71,1.55,1.4,2.35,2.08.29.24.3.4.05.69-2.25,2.51-5.08,3.78-8.43,3.88-3.5.11-6.59-.91-9.05-3.47-2.06-2.14-3.01-4.78-3.12-7.71-.12-3.29.76-6.26,2.95-8.78,3.77-4.34,10.69-4.92,15.07-1.21,2.02,1.72,3.09,4,3.6,6.57.27,1.39.39,2.79.27,4.2-.03.39-.17.47-.54.47-2.6-.01-5.21,0-7.81,0Zm-2.59-3.48c1.76,0,3.52-.02,5.28.01.46,0,.52-.15.45-.54-.12-.65-.29-1.28-.54-1.89-1.22-2.96-4.39-4.31-7.3-3.03-2.2.97-3.17,2.87-3.6,5.12-.07.37.16.33.38.33,1.78,0,3.56,0,5.33,0Z"/>
      <path class="cls-1" d="m131.13,12.05c.91-1.21,1.82-2.17,2.99-2.87,2.92-1.75,8.41-1.52,10.8,2.27.97,1.53,1.39,3.23,1.4,5.01.03,4.93,0,9.85.02,14.78,0,.42-.13.52-.53.51-1.39-.02-2.79-.03-4.18,0-.47.01-.57-.13-.57-.58.02-4.3.02-8.61,0-12.91,0-1.54-.31-3-1.48-4.12-2.6-2.51-7.2-1.16-8.2,2.41-.22.78-.25,1.59-.25,2.39,0,4.07,0,8.13,0,12.2,0,.47-.09.63-.6.62-1.36-.04-2.71-.03-4.07,0-.48.01-.61-.11-.61-.6.02-7.23.01-14.47.01-21.7q0-1.32,1.35-1.32c1.12,0,2.24.03,3.35-.01.48-.02.58.14.56.59-.03,1.06-.01,2.12-.01,3.34Z"/>
      <path class="cls-1" d="m154.21,11.83c.94-1.04,1.86-1.99,3.03-2.68,2.82-1.66,8.25-1.56,10.72,2.26.84,1.31,1.27,2.75,1.38,4.29.06.88.08,1.76.08,2.63,0,4.29,0,8.57.01,12.86,0,.42-.08.57-.54.56-1.39-.03-2.79-.03-4.18,0-.46,0-.58-.12-.58-.57.02-4.3.02-8.61,0-12.91,0-1.44-.27-2.83-1.29-3.93-2.4-2.59-7.01-1.61-8.24,1.73-.28.76-.4,1.55-.4,2.37,0,4.19,0,8.39,0,12.58,0,.81.09.72-.69.72-1.32,0-2.64-.02-3.96.01-.48.01-.61-.12-.61-.6.02-7.18.01-14.36.01-21.54,0-.33.02-.66,0-.99-.03-.37.08-.51.48-.5,1.45.02,2.9.02,4.35,0,.35,0,.44.1.43.43-.02,1.09,0,2.18,0,3.27Z"/>
      <path class="cls-1" d="m65.71,27.89c-.87,1.14-1.72,2.05-2.81,2.73-5.03,3.13-11.48.06-12.18-5.81-.08-.67-.12-1.35-.12-2.03,0-4.71,0-9.41-.01-14.12,0-.42.09-.56.54-.55,1.39.03,2.79.03,4.18,0,.43,0,.51.13.51.53-.01,4.16-.01,8.31,0,12.47,0,1.27.11,2.52.75,3.67.41.74.97,1.33,1.74,1.7,3.48,1.66,7.21-.53,7.39-4.41.1-2.08.03-4.17.03-6.26,0-2.4,0-4.8,0-7.2,0-.37.08-.51.48-.5,1.43.02,2.86.02,4.29,0,.33,0,.48.04.48.44-.01,7.58-.01,15.16,0,22.74,0,.32-.08.45-.43.45-1.47-.02-2.93-.02-4.4,0-.35,0-.43-.13-.43-.45.02-1.08,0-2.16,0-3.41Z"/>
      <path class="cls-1" d="m223.05,19.6c0-2.14-.01-4.29,0-6.43,0-.41-.11-.54-.52-.52-.66.03-1.32,0-1.98.01-.27,0-.39-.08-.38-.37.01-1.26.01-2.53,0-3.79,0-.3.11-.37.39-.37.68.01,1.36-.01,2.03.01.36.01.46-.1.46-.46-.02-2.36,0-4.73-.02-7.09,0-.44.09-.6.57-.59,1.41.03,2.82.02,4.24,0,.39,0,.5.11.49.5-.02,2.36,0,4.73-.02,7.09,0,.42.08.56.54.56,1.65-.03,3.3,0,4.95-.02.41,0,.58.07.57.53-.04,1.17-.03,2.34,0,3.52,0,.38-.11.5-.49.49-1.67-.02-3.34,0-5.01-.02-.44,0-.55.13-.55.56.02,3.7,0,7.4.01,11.1,0,1.88.94,2.78,2.84,2.76.95-.01,1.86-.18,2.72-.59.33-.16.48-.17.47.28-.02,1.15-.01,2.31,0,3.46,0,.21-.02.39-.25.49-2.73,1.29-5.5,1.51-8.27.21-1.54-.73-2.26-2.13-2.58-3.75-.21-1.05-.21-2.11-.21-3.17,0-1.47,0-2.93,0-4.4Z"/>
      <path class="cls-1" d="m208.66,31.74c-6.42,0-11.27-4.19-12-10.2-.94-7.71,5.06-14.1,12.98-13.36,2.92.27,5.4,1.38,7.43,3.5.29.3.27.46,0,.75-.86.9-1.71,1.81-2.53,2.75-.3.35-.47.31-.76,0-1.48-1.54-3.25-2.47-5.45-2.46-2.96.01-5.39,1.96-6.24,5.02-.85,3.06.14,6.37,2.45,8.14,2.3,1.78,5.63,1.79,8.11.02.54-.38,1.06-.79,1.51-1.27.2-.21.33-.21.53,0,.86.87,1.73,1.75,2.62,2.59.27.26.17.4-.03.61-2.41,2.63-5.38,3.98-8.62,3.92Z"/>
    </g>
  </g>
</svg>