<?xml version="1.0" standalone="no"?>
<!DOCTYPE svg PUBLIC "-//W3C//DTD SVG 20010904//EN"
 "http://www.w3.org/TR/2001/REC-SVG-20010904/DTD/svg10.dtd">
<svg version="1.0" xmlns="http://www.w3.org/2000/svg"
 width="2560.000000pt" height="1707.000000pt" viewBox="0 0 2560.000000 1707.000000"
 preserveAspectRatio="xMidYMid meet">

<g transform="translate(0.000000,1707.000000) scale(0.100000,-0.100000)"
fill="#000000" stroke="none">
<path d="M12590 13649 c-1029 -40 -2019 -390 -2846 -1007 -385 -287 -761 -662
-1047 -1044 -513 -687 -850 -1508 -966 -2348 -37 -270 -45 -402 -45 -710 0
-471 39 -802 150 -1250 180 -733 542 -1443 1036 -2035 572 -685 1347 -1230
2173 -1527 619 -223 1205 -319 1865 -305 290 6 465 21 720 62 1424 231 2702
1073 3486 2300 879 1375 1046 3105 447 4630 -65 165 -233 514 -323 670 -660
1149 -1752 2005 -3021 2370 -380 109 -790 177 -1139 190 -80 3 -181 7 -225 8
-44 2 -163 0 -265 -4z"/>
</g>
</svg>
